<mxfile host="app.diagrams.net" agent="Mozilla/5.0 (Windows NT 10.0; Win64; x64) AppleWebKit/537.36 (KHTML, like Gecko) Chrome/130.0.0.0 Safari/537.36 Edg/130.0.0.0" version="24.8.3">
  <diagram name="Seite-1" id="UNdFBF08pCrDpQDt1tSd">
    <mxGraphModel dx="1426" dy="781" grid="1" gridSize="10" guides="1" tooltips="1" connect="1" arrows="1" fold="1" page="1" pageScale="1" pageWidth="827" pageHeight="1169" math="0" shadow="0">
      <root>
        <mxCell id="0" />
        <mxCell id="1" parent="0" />
        <mxCell id="SIuf99kbpfu9E8682O-P-1" value="bdd: Festo-Tranfer-System" style="shape=umlFrame;whiteSpace=wrap;html=1;pointerEvents=0;width=240;height=40;" parent="1" vertex="1">
          <mxGeometry x="15" y="475" width="790" height="600" as="geometry" />
        </mxCell>
        <mxCell id="SIuf99kbpfu9E8682O-P-5" value="" style="rounded=0;orthogonalLoop=1;jettySize=auto;html=1;endArrow=halfCircle;endFill=0;endSize=6;strokeWidth=1;sketch=0;" parent="1" source="SIuf99kbpfu9E8682O-P-71" target="SIuf99kbpfu9E8682O-P-7" edge="1">
          <mxGeometry relative="1" as="geometry">
            <mxPoint x="-60" y="897" as="sourcePoint" />
          </mxGeometry>
        </mxCell>
        <mxCell id="SIuf99kbpfu9E8682O-P-6" value="" style="rounded=0;orthogonalLoop=1;jettySize=auto;html=1;endArrow=oval;endFill=0;sketch=0;sourcePerimeterSpacing=0;targetPerimeterSpacing=0;endSize=10;exitX=0.5;exitY=1;exitDx=0;exitDy=0;exitPerimeter=0;" parent="1" source="SIuf99kbpfu9E8682O-P-74" target="SIuf99kbpfu9E8682O-P-7" edge="1">
          <mxGeometry relative="1" as="geometry">
            <mxPoint x="180" y="795" as="sourcePoint" />
            <Array as="points" />
          </mxGeometry>
        </mxCell>
        <mxCell id="SIuf99kbpfu9E8682O-P-7" value="" style="ellipse;whiteSpace=wrap;html=1;align=center;aspect=fixed;fillColor=none;strokeColor=none;resizable=0;perimeter=centerPerimeter;rotatable=0;allowArrows=0;points=[];outlineConnect=1;" parent="1" vertex="1">
          <mxGeometry x="110" y="795" width="10" height="10" as="geometry" />
        </mxCell>
        <mxCell id="SIuf99kbpfu9E8682O-P-8" value="I_Button" style="text;html=1;align=center;verticalAlign=middle;resizable=0;points=[];autosize=1;strokeColor=none;fillColor=none;" parent="1" vertex="1">
          <mxGeometry x="40" y="795" width="70" height="30" as="geometry" />
        </mxCell>
        <mxCell id="SIuf99kbpfu9E8682O-P-12" value="" style="rounded=0;orthogonalLoop=1;jettySize=auto;html=1;endArrow=halfCircle;endFill=0;endSize=6;strokeWidth=1;sketch=0;" parent="1" source="SIuf99kbpfu9E8682O-P-28" target="SIuf99kbpfu9E8682O-P-14" edge="1">
          <mxGeometry relative="1" as="geometry">
            <mxPoint x="720" y="905" as="sourcePoint" />
          </mxGeometry>
        </mxCell>
        <mxCell id="SIuf99kbpfu9E8682O-P-13" value="" style="rounded=0;orthogonalLoop=1;jettySize=auto;html=1;endArrow=oval;endFill=0;sketch=0;sourcePerimeterSpacing=0;targetPerimeterSpacing=0;endSize=10;" parent="1" target="SIuf99kbpfu9E8682O-P-14" edge="1">
          <mxGeometry relative="1" as="geometry">
            <mxPoint x="420" y="800" as="sourcePoint" />
          </mxGeometry>
        </mxCell>
        <mxCell id="SIuf99kbpfu9E8682O-P-14" value="" style="ellipse;whiteSpace=wrap;html=1;align=center;aspect=fixed;fillColor=none;strokeColor=none;resizable=0;perimeter=centerPerimeter;rotatable=0;allowArrows=0;points=[];outlineConnect=1;" parent="1" vertex="1">
          <mxGeometry x="560" y="795" width="10" height="10" as="geometry" />
        </mxCell>
        <mxCell id="SIuf99kbpfu9E8682O-P-15" value="I_LED" style="text;html=1;align=center;verticalAlign=middle;resizable=0;points=[];autosize=1;strokeColor=none;fillColor=none;" parent="1" vertex="1">
          <mxGeometry x="570" y="795" width="60" height="30" as="geometry" />
        </mxCell>
        <mxCell id="SIuf99kbpfu9E8682O-P-21" value="&lt;p style=&quot;margin:5px;&quot;&gt;&lt;br&gt;&lt;/p&gt;&lt;p style=&quot;margin:5px;&quot;&gt;&amp;lt;&amp;lt;block&amp;gt;&amp;gt;&lt;br&gt;&lt;b&gt;Control&lt;/b&gt;&lt;br&gt;&lt;/p&gt;&lt;div&gt;&lt;b&gt;&lt;br&gt;&lt;/b&gt;&lt;/div&gt;" style="shape=rect;html=1;overflow=fill;whiteSpace=wrap;align=center;" parent="1" vertex="1">
          <mxGeometry x="244" y="735" width="176" height="80" as="geometry" />
        </mxCell>
        <mxCell id="SIuf99kbpfu9E8682O-P-22" value="&lt;p style=&quot;margin:5px;&quot;&gt;&lt;br&gt;&lt;/p&gt;&lt;p style=&quot;margin:5px;&quot;&gt;&amp;lt;&amp;lt;block&amp;gt;&amp;gt;&lt;/p&gt;&lt;p style=&quot;margin:5px;&quot;&gt;Button&lt;/p&gt;" style="shape=rect;html=1;overflow=fill;whiteSpace=wrap;align=center;" parent="1" vertex="1">
          <mxGeometry x="35" y="880" width="155" height="65" as="geometry" />
        </mxCell>
        <mxCell id="SIuf99kbpfu9E8682O-P-23" value="&lt;p style=&quot;margin:5px;&quot;&gt;&amp;lt;&amp;lt;block&amp;gt;&amp;gt;&lt;/p&gt;&lt;p style=&quot;margin:5px;&quot;&gt;&lt;b&gt;LightBarrier&lt;/b&gt;&lt;/p&gt;" style="shape=rect;html=1;overflow=fill;whiteSpace=wrap;align=center;" parent="1" vertex="1">
          <mxGeometry x="37.5" y="620" width="155" height="60" as="geometry" />
        </mxCell>
        <mxCell id="SIuf99kbpfu9E8682O-P-24" value="&lt;p style=&quot;margin:5px;&quot;&gt;&amp;lt;&amp;lt;block&amp;gt;&amp;gt;&lt;/p&gt;&lt;p style=&quot;margin:5px;&quot;&gt;&lt;b&gt;Motor&lt;/b&gt;&lt;br&gt;&lt;/p&gt;" style="shape=rect;html=1;overflow=fill;whiteSpace=wrap;align=center;" parent="1" vertex="1">
          <mxGeometry x="241" y="560" width="166" height="60" as="geometry" />
        </mxCell>
        <mxCell id="SIuf99kbpfu9E8682O-P-25" value="&lt;p style=&quot;margin:5px;&quot;&gt;&amp;lt;&amp;lt;block&amp;gt;&amp;gt;&lt;/p&gt;&lt;p style=&quot;margin:5px;&quot;&gt;&lt;b&gt;HeightSensor&lt;/b&gt;&lt;br&gt;&lt;/p&gt;" style="shape=rect;html=1;overflow=fill;whiteSpace=wrap;align=center;" parent="1" vertex="1">
          <mxGeometry x="600" y="717.5" width="166" height="65" as="geometry" />
        </mxCell>
        <mxCell id="SIuf99kbpfu9E8682O-P-26" value="&lt;p style=&quot;margin:5px;&quot;&gt;&lt;br&gt;&lt;/p&gt;&lt;p style=&quot;margin:5px;&quot;&gt;&amp;lt;&amp;lt;block&amp;gt;&amp;gt;&lt;/p&gt;&lt;p style=&quot;margin:5px;&quot;&gt;SortingModule&lt;/p&gt;" style="shape=rect;html=1;overflow=fill;whiteSpace=wrap;align=center;" parent="1" vertex="1">
          <mxGeometry x="256" y="915" width="158" height="80" as="geometry" />
        </mxCell>
        <mxCell id="SIuf99kbpfu9E8682O-P-28" value="&lt;p style=&quot;margin:5px;&quot;&gt;&lt;br&gt;&lt;/p&gt;&lt;p style=&quot;margin:5px;&quot;&gt;&amp;lt;&amp;lt;block&amp;gt;&amp;gt;&lt;/p&gt;&lt;p style=&quot;margin:5px;&quot;&gt;&lt;b&gt;LED&lt;/b&gt;&lt;br&gt;&lt;/p&gt;" style="shape=rect;html=1;overflow=fill;whiteSpace=wrap;align=center;" parent="1" vertex="1">
          <mxGeometry x="487.5" y="900" width="155" height="70" as="geometry" />
        </mxCell>
        <mxCell id="SIuf99kbpfu9E8682O-P-31" value="" style="rounded=0;orthogonalLoop=1;jettySize=auto;html=1;endArrow=halfCircle;endFill=0;endSize=6;strokeWidth=1;sketch=0;" parent="1" source="SIuf99kbpfu9E8682O-P-67" target="SIuf99kbpfu9E8682O-P-33" edge="1">
          <mxGeometry relative="1" as="geometry">
            <mxPoint x="520" y="640" as="sourcePoint" />
          </mxGeometry>
        </mxCell>
        <mxCell id="SIuf99kbpfu9E8682O-P-32" value="" style="rounded=0;orthogonalLoop=1;jettySize=auto;html=1;endArrow=oval;endFill=0;sketch=0;sourcePerimeterSpacing=0;targetPerimeterSpacing=0;endSize=10;" parent="1" source="SIuf99kbpfu9E8682O-P-21" target="SIuf99kbpfu9E8682O-P-33" edge="1">
          <mxGeometry relative="1" as="geometry">
            <mxPoint x="480" y="640" as="sourcePoint" />
          </mxGeometry>
        </mxCell>
        <mxCell id="SIuf99kbpfu9E8682O-P-33" value="" style="ellipse;whiteSpace=wrap;html=1;align=center;aspect=fixed;fillColor=none;strokeColor=none;resizable=0;perimeter=centerPerimeter;rotatable=0;allowArrows=0;points=[];outlineConnect=1;" parent="1" vertex="1">
          <mxGeometry x="327" y="860" width="10" height="10" as="geometry" />
        </mxCell>
        <mxCell id="SIuf99kbpfu9E8682O-P-35" value="" style="rounded=0;orthogonalLoop=1;jettySize=auto;html=1;endArrow=halfCircle;endFill=0;endSize=6;strokeWidth=1;sketch=0;" parent="1" source="SIuf99kbpfu9E8682O-P-61" target="SIuf99kbpfu9E8682O-P-37" edge="1">
          <mxGeometry relative="1" as="geometry">
            <mxPoint x="520" y="890" as="sourcePoint" />
          </mxGeometry>
        </mxCell>
        <mxCell id="SIuf99kbpfu9E8682O-P-36" value="" style="rounded=0;orthogonalLoop=1;jettySize=auto;html=1;endArrow=oval;endFill=0;sketch=0;sourcePerimeterSpacing=0;targetPerimeterSpacing=0;endSize=10;" parent="1" source="SIuf99kbpfu9E8682O-P-63" target="SIuf99kbpfu9E8682O-P-37" edge="1">
          <mxGeometry relative="1" as="geometry">
            <mxPoint x="420" y="750" as="sourcePoint" />
          </mxGeometry>
        </mxCell>
        <mxCell id="SIuf99kbpfu9E8682O-P-37" value="" style="ellipse;whiteSpace=wrap;html=1;align=center;aspect=fixed;fillColor=none;strokeColor=none;resizable=0;perimeter=centerPerimeter;rotatable=0;allowArrows=0;points=[];outlineConnect=1;" parent="1" vertex="1">
          <mxGeometry x="520" y="745" width="10" height="10" as="geometry" />
        </mxCell>
        <mxCell id="SIuf99kbpfu9E8682O-P-39" value="" style="rounded=0;orthogonalLoop=1;jettySize=auto;html=1;endArrow=halfCircle;endFill=0;endSize=6;strokeWidth=1;sketch=0;" parent="1" source="SIuf99kbpfu9E8682O-P-58" target="SIuf99kbpfu9E8682O-P-41" edge="1">
          <mxGeometry relative="1" as="geometry">
            <mxPoint x="520" y="890" as="sourcePoint" />
          </mxGeometry>
        </mxCell>
        <mxCell id="SIuf99kbpfu9E8682O-P-40" value="" style="rounded=0;orthogonalLoop=1;jettySize=auto;html=1;endArrow=oval;endFill=0;sketch=0;sourcePerimeterSpacing=0;targetPerimeterSpacing=0;endSize=10;" parent="1" source="SIuf99kbpfu9E8682O-P-55" target="SIuf99kbpfu9E8682O-P-41" edge="1">
          <mxGeometry relative="1" as="geometry">
            <mxPoint x="480" y="890" as="sourcePoint" />
          </mxGeometry>
        </mxCell>
        <mxCell id="SIuf99kbpfu9E8682O-P-41" value="" style="ellipse;whiteSpace=wrap;html=1;align=center;aspect=fixed;fillColor=none;strokeColor=none;resizable=0;perimeter=centerPerimeter;rotatable=0;allowArrows=0;points=[];outlineConnect=1;" parent="1" vertex="1">
          <mxGeometry x="320" y="665" width="10" height="10" as="geometry" />
        </mxCell>
        <mxCell id="SIuf99kbpfu9E8682O-P-43" value="" style="rounded=0;orthogonalLoop=1;jettySize=auto;html=1;endArrow=halfCircle;endFill=0;endSize=6;strokeWidth=1;sketch=0;" parent="1" source="SIuf99kbpfu9E8682O-P-23" target="SIuf99kbpfu9E8682O-P-45" edge="1">
          <mxGeometry relative="1" as="geometry">
            <mxPoint x="520" y="890" as="sourcePoint" />
          </mxGeometry>
        </mxCell>
        <mxCell id="SIuf99kbpfu9E8682O-P-44" value="" style="rounded=0;orthogonalLoop=1;jettySize=auto;html=1;endArrow=oval;endFill=0;sketch=0;sourcePerimeterSpacing=0;targetPerimeterSpacing=0;endSize=10;exitX=0;exitY=0.25;exitDx=0;exitDy=0;" parent="1" source="SIuf99kbpfu9E8682O-P-21" target="SIuf99kbpfu9E8682O-P-45" edge="1">
          <mxGeometry relative="1" as="geometry">
            <mxPoint x="480" y="890" as="sourcePoint" />
          </mxGeometry>
        </mxCell>
        <mxCell id="SIuf99kbpfu9E8682O-P-45" value="" style="ellipse;whiteSpace=wrap;html=1;align=center;aspect=fixed;fillColor=none;strokeColor=none;resizable=0;perimeter=centerPerimeter;rotatable=0;allowArrows=0;points=[];outlineConnect=1;" parent="1" vertex="1">
          <mxGeometry x="110" y="750" width="10" height="10" as="geometry" />
        </mxCell>
        <mxCell id="SIuf99kbpfu9E8682O-P-46" value="I_HeightSensor" style="text;html=1;align=center;verticalAlign=middle;resizable=0;points=[];autosize=1;strokeColor=none;fillColor=none;" parent="1" vertex="1">
          <mxGeometry x="480" y="710" width="110" height="30" as="geometry" />
        </mxCell>
        <mxCell id="SIuf99kbpfu9E8682O-P-47" value="I_SortingModule" style="text;html=1;align=center;verticalAlign=middle;resizable=0;points=[];autosize=1;strokeColor=none;fillColor=none;" parent="1" vertex="1">
          <mxGeometry x="342" y="850" width="110" height="30" as="geometry" />
        </mxCell>
        <mxCell id="SIuf99kbpfu9E8682O-P-48" value="I_&lt;b style=&quot;text-wrap-mode: wrap;&quot;&gt;LightBarrier&lt;/b&gt;" style="text;html=1;align=center;verticalAlign=middle;resizable=0;points=[];autosize=1;strokeColor=none;fillColor=none;" parent="1" vertex="1">
          <mxGeometry x="15" y="720" width="100" height="30" as="geometry" />
        </mxCell>
        <mxCell id="SIuf99kbpfu9E8682O-P-49" value="I_Motor" style="text;html=1;align=center;verticalAlign=middle;resizable=0;points=[];autosize=1;strokeColor=none;fillColor=none;" parent="1" vertex="1">
          <mxGeometry x="340" y="640" width="60" height="30" as="geometry" />
        </mxCell>
        <mxCell id="SIuf99kbpfu9E8682O-P-55" value="" style="html=1;shape=mxgraph.sysml.port;sysMLPortType=flowN;" parent="1" vertex="1">
          <mxGeometry x="315" y="725" width="20" height="20" as="geometry" />
        </mxCell>
        <mxCell id="SIuf99kbpfu9E8682O-P-59" value="" style="rounded=0;orthogonalLoop=1;jettySize=auto;html=1;endArrow=halfCircle;endFill=0;endSize=6;strokeWidth=1;sketch=0;" parent="1" source="SIuf99kbpfu9E8682O-P-24" target="SIuf99kbpfu9E8682O-P-58" edge="1">
          <mxGeometry relative="1" as="geometry">
            <mxPoint x="324" y="620" as="sourcePoint" />
            <mxPoint x="325" y="670" as="targetPoint" />
          </mxGeometry>
        </mxCell>
        <mxCell id="SIuf99kbpfu9E8682O-P-58" value="" style="html=1;shape=mxgraph.sysml.port;sysMLPortType=flowN;" parent="1" vertex="1">
          <mxGeometry x="314" y="605" width="20" height="20" as="geometry" />
        </mxCell>
        <mxCell id="SIuf99kbpfu9E8682O-P-62" value="" style="rounded=0;orthogonalLoop=1;jettySize=auto;html=1;endArrow=halfCircle;endFill=0;endSize=6;strokeWidth=1;sketch=0;" parent="1" source="SIuf99kbpfu9E8682O-P-25" target="SIuf99kbpfu9E8682O-P-61" edge="1">
          <mxGeometry relative="1" as="geometry">
            <mxPoint x="600" y="750" as="sourcePoint" />
            <mxPoint x="525" y="750" as="targetPoint" />
          </mxGeometry>
        </mxCell>
        <mxCell id="SIuf99kbpfu9E8682O-P-61" value="" style="html=1;shape=mxgraph.sysml.port;sysMLPortType=flowN;rotation=-90;" parent="1" vertex="1">
          <mxGeometry x="590" y="740" width="20" height="20" as="geometry" />
        </mxCell>
        <mxCell id="SIuf99kbpfu9E8682O-P-63" value="" style="html=1;shape=mxgraph.sysml.port;sysMLPortType=flowN;rotation=-90;" parent="1" vertex="1">
          <mxGeometry x="407" y="740" width="20" height="20" as="geometry" />
        </mxCell>
        <mxCell id="SIuf99kbpfu9E8682O-P-65" value="" style="html=1;shape=mxgraph.sysml.port;sysMLPortType=flowN;rotation=90;" parent="1" vertex="1">
          <mxGeometry x="407" y="790" width="20" height="20" as="geometry" />
        </mxCell>
        <mxCell id="SIuf99kbpfu9E8682O-P-66" value="" style="html=1;shape=mxgraph.sysml.port;sysMLPortType=flowN;rotation=-180;" parent="1" vertex="1">
          <mxGeometry x="555" y="895" width="20" height="20" as="geometry" />
        </mxCell>
        <mxCell id="SIuf99kbpfu9E8682O-P-68" value="" style="rounded=0;orthogonalLoop=1;jettySize=auto;html=1;endArrow=halfCircle;endFill=0;endSize=6;strokeWidth=1;sketch=0;" parent="1" source="SIuf99kbpfu9E8682O-P-26" target="SIuf99kbpfu9E8682O-P-67" edge="1">
          <mxGeometry relative="1" as="geometry">
            <mxPoint x="331" y="915" as="sourcePoint" />
            <mxPoint x="332" y="865" as="targetPoint" />
          </mxGeometry>
        </mxCell>
        <mxCell id="SIuf99kbpfu9E8682O-P-67" value="" style="html=1;shape=mxgraph.sysml.port;sysMLPortType=flowN;rotation=-180;" parent="1" vertex="1">
          <mxGeometry x="322" y="900" width="20" height="20" as="geometry" />
        </mxCell>
        <mxCell id="SIuf99kbpfu9E8682O-P-70" value="" style="html=1;shape=mxgraph.sysml.port;sysMLPortType=flowN;rotation=-180;" parent="1" vertex="1">
          <mxGeometry x="322" y="805" width="20" height="20" as="geometry" />
        </mxCell>
        <mxCell id="SIuf99kbpfu9E8682O-P-72" value="" style="rounded=0;orthogonalLoop=1;jettySize=auto;html=1;endArrow=halfCircle;endFill=0;endSize=6;strokeWidth=1;sketch=0;" parent="1" source="SIuf99kbpfu9E8682O-P-22" target="SIuf99kbpfu9E8682O-P-71" edge="1">
          <mxGeometry relative="1" as="geometry">
            <mxPoint x="115" y="880" as="sourcePoint" />
            <mxPoint x="115" y="800" as="targetPoint" />
          </mxGeometry>
        </mxCell>
        <mxCell id="SIuf99kbpfu9E8682O-P-71" value="" style="html=1;shape=mxgraph.sysml.port;sysMLPortType=flowN;rotation=0;" parent="1" vertex="1">
          <mxGeometry x="105" y="870" width="20" height="20" as="geometry" />
        </mxCell>
        <mxCell id="SIuf99kbpfu9E8682O-P-73" value="" style="html=1;shape=mxgraph.sysml.port;sysMLPortType=flowN;rotation=-181;" parent="1" vertex="1">
          <mxGeometry x="105" y="670" width="20" height="20" as="geometry" />
        </mxCell>
        <mxCell id="SIuf99kbpfu9E8682O-P-74" value="" style="html=1;shape=mxgraph.sysml.port;sysMLPortType=flowN;rotation=90;" parent="1" vertex="1">
          <mxGeometry x="236" y="790" width="20" height="20" as="geometry" />
        </mxCell>
        <mxCell id="SIuf99kbpfu9E8682O-P-78" value="" style="html=1;shape=mxgraph.sysml.port;sysMLPortType=flowN;rotation=90;" parent="1" vertex="1">
          <mxGeometry x="236" y="745" width="20" height="20" as="geometry" />
        </mxCell>
        <mxCell id="ZfRYR1z3sSI30PtcG5vq-1" value="&lt;p style=&quot;margin:5px;&quot;&gt;&amp;lt;&amp;lt;block&amp;gt;&amp;gt;&lt;/p&gt;&lt;p style=&quot;margin:5px;&quot;&gt;&lt;b&gt;MetalSensor&lt;/b&gt;&lt;br&gt;&lt;/p&gt;" style="shape=rect;html=1;overflow=fill;whiteSpace=wrap;align=center;" vertex="1" parent="1">
          <mxGeometry x="540" y="540" width="166" height="65" as="geometry" />
        </mxCell>
        <mxCell id="ZfRYR1z3sSI30PtcG5vq-2" value="" style="html=1;shape=mxgraph.sysml.port;sysMLPortType=flowN;rotation=-180;" vertex="1" parent="1">
          <mxGeometry x="600" y="590" width="20" height="20" as="geometry" />
        </mxCell>
        <mxCell id="ZfRYR1z3sSI30PtcG5vq-3" value="" style="html=1;shape=mxgraph.sysml.port;sysMLPortType=flowN;rotation=-180;" vertex="1" parent="1">
          <mxGeometry x="370" y="725" width="20" height="20" as="geometry" />
        </mxCell>
        <mxCell id="ZfRYR1z3sSI30PtcG5vq-5" value="" style="rounded=0;orthogonalLoop=1;jettySize=auto;html=1;endArrow=halfCircle;endFill=0;endSize=6;strokeWidth=1;sketch=0;exitX=0.5;exitY=0;exitDx=0;exitDy=0;exitPerimeter=0;" edge="1" target="ZfRYR1z3sSI30PtcG5vq-7" parent="1" source="ZfRYR1z3sSI30PtcG5vq-2">
          <mxGeometry relative="1" as="geometry">
            <mxPoint x="660" y="630" as="sourcePoint" />
          </mxGeometry>
        </mxCell>
        <mxCell id="ZfRYR1z3sSI30PtcG5vq-6" value="" style="rounded=0;orthogonalLoop=1;jettySize=auto;html=1;endArrow=oval;endFill=0;sketch=0;sourcePerimeterSpacing=0;targetPerimeterSpacing=0;endSize=10;exitX=0.5;exitY=1;exitDx=0;exitDy=0;exitPerimeter=0;" edge="1" target="ZfRYR1z3sSI30PtcG5vq-7" parent="1" source="ZfRYR1z3sSI30PtcG5vq-3">
          <mxGeometry relative="1" as="geometry">
            <mxPoint x="390" y="805" as="sourcePoint" />
            <Array as="points">
              <mxPoint x="380" y="680" />
            </Array>
          </mxGeometry>
        </mxCell>
        <mxCell id="ZfRYR1z3sSI30PtcG5vq-7" value="" style="ellipse;whiteSpace=wrap;html=1;align=center;aspect=fixed;fillColor=none;strokeColor=none;resizable=0;perimeter=centerPerimeter;rotatable=0;allowArrows=0;points=[];outlineConnect=1;" vertex="1" parent="1">
          <mxGeometry x="605" y="675" width="10" height="10" as="geometry" />
        </mxCell>
        <mxCell id="ZfRYR1z3sSI30PtcG5vq-8" value="I_MetalSensor" style="text;html=1;align=center;verticalAlign=middle;resizable=0;points=[];autosize=1;strokeColor=none;fillColor=none;" vertex="1" parent="1">
          <mxGeometry x="625" y="655" width="100" height="30" as="geometry" />
        </mxCell>
        <mxCell id="ZfRYR1z3sSI30PtcG5vq-9" value="&lt;p style=&quot;margin:5px;&quot;&gt;&amp;lt;&amp;lt;block&amp;gt;&amp;gt;&lt;/p&gt;&lt;p style=&quot;margin:5px;&quot;&gt;&lt;b&gt;E_Stop&lt;/b&gt;&lt;br&gt;&lt;/p&gt;" style="shape=rect;html=1;overflow=fill;whiteSpace=wrap;align=center;" vertex="1" parent="1">
          <mxGeometry x="342" y="360" width="166" height="60" as="geometry" />
        </mxCell>
      </root>
    </mxGraphModel>
  </diagram>
</mxfile>
